<svg xmlns="http://www.w3.org/2000/svg" xmlns:xlink="http://www.w3.org/1999/xlink" aria-hidden="true" role="img" class="iconify iconify--logos" width="35.93" height="32" preserveAspectRatio="xMidYMid meet" viewBox="0 0 256 228"><path fill="#00D8FF" d="M210.483 73.824a171.49 171.49 0 0 0-8.24-22.596c.45-.18.9-.378 1.35-.576c2.88-1.26 5.76-2.574 8.554-3.96a175.932 175.932 0 0 0-5.428-12.636a168.234 168.234 0 0 0-10.8-18.234a170.303 170.303 0 0 0-5.562-7.776a171.487 171.487 0 0 0-8.1-8.928a172.585 172.585 0 0 0-9.468-8.478c-.612-.468-1.206-.954-1.836-1.422a88.834 88.834 0 0 0-4.428-3.078a174.4 174.4 0 0 0-10.692-6.12a171.92 171.92 0 0 0-11.934-5.202a170.543 170.543 0 0 0-6.138-1.98a175.932 175.932 0 0 0-11.934-2.7a171.396 171.396 0 0 0-6.444-.864a172.692 172.692 0 0 0-22.356-1.44a172.692 172.692 0 0 0-22.356 1.44a171.396 171.396 0 0 0-6.444.864a175.932 175.932 0 0 0-11.934 2.7a170.543 170.543 0 0 0-6.138 1.98a171.92 171.92 0 0 0-11.934 5.202a174.4 174.4 0 0 0-10.692 6.12a88.834 88.834 0 0 0-4.428 3.078c-.63.468-1.224.954-1.836 1.422a172.585 172.585 0 0 0-9.468 8.478a171.487 171.487 0 0 0-8.1 8.928a170.303 170.303 0 0 0-5.562 7.776a168.234 168.234 0 0 0-10.8 18.234a175.932 175.932 0 0 0-5.428 12.636c2.812 1.386 5.674 2.7 8.554 3.96c.45.198.9.396 1.35.576a171.49 171.49 0 0 0-8.24 22.596a175.847 175.847 0 0 0-2.88 13.5a172.692 172.692 0 0 0 0 45.072a175.847 175.847 0 0 0 2.88 13.5a171.49 171.49 0 0 0 8.24 22.596c-.45.18-.9.378-1.35.576c-2.88 1.26-5.76 2.574-8.554 3.96a175.932 175.932 0 0 0 5.428 12.636a168.234 168.234 0 0 0 10.8 18.234a170.303 170.303 0 0 0 5.562 7.776a171.487 171.487 0 0 0 8.1 8.928a172.585 172.585 0 0 0 9.468 8.478c.612.468 1.206.954 1.836 1.422a88.834 88.834 0 0 0 4.428 3.078a174.4 174.4 0 0 0 10.692 6.12a171.92 171.92 0 0 0 11.934 5.202a170.543 170.543 0 0 0 6.138 1.98a175.932 175.932 0 0 0 11.934 2.7a171.396 171.396 0 0 0 6.444.864a172.692 172.692 0 0 0 22.356 1.44a172.692 172.692 0 0 0 22.356-1.44a171.396 171.396 0 0 0 6.444-.864a175.932 175.932 0 0 0 11.934-2.7a170.543 170.543 0 0 0 6.138-1.98a171.92 171.92 0 0 0 11.934-5.202a174.4 174.4 0 0 0 10.692-6.12a88.834 88.834 0 0 0 4.428-3.078c.63-.468 1.224-.954 1.836-1.422a172.585 172.585 0 0 0 9.468-8.478a171.487 171.487 0 0 0 8.1-8.928a170.303 170.303 0 0 0 5.562-7.776a168.234 168.234 0 0 0 10.8-18.234a175.932 175.932 0 0 0 5.428-12.636c-2.812-1.386-5.674-2.7-8.554-3.96c-.45-.198-.9-.396-1.35-.576a171.49 171.49 0 0 0 8.24-22.596a175.847 175.847 0 0 0 2.88-13.5a172.692 172.692 0 0 0 0-45.072a175.847 175.847 0 0 0-2.88-13.5Zm-6.534 58.932a145.395 145.395 0 0 1-2.43 10.89a145.395 145.395 0 0 1-6.966 18.792a144.92 144.92 0 0 1-2.376 4.428a144.92 144.92 0 0 1-2.376-4.428a145.395 145.395 0 0 1-6.966-18.792a145.395 145.395 0 0 1-2.43-10.89a145.395 145.395 0 0 1 2.43-10.89a145.395 145.395 0 0 1 6.966-18.792a144.92 144.92 0 0 1 2.376-4.428a144.92 144.92 0 0 1 2.376 4.428a145.395 145.395 0 0 1 6.966 18.792a145.395 145.395 0 0 1 2.43 10.89Z"></path><path fill="#00D8FF" d="M128.003 0C57.317 0 0 51.035 0 114.048c0 63.024 57.317 114.048 128.003 114.048c70.695 0 128.012-51.024 128.012-114.048C256.015 51.035 198.698 0 128.003 0Zm0 206.586c-51.031 0-92.538-41.004-92.538-92.538c0-51.534 41.507-92.538 92.538-92.538c51.041 0 92.548 41.004 92.548 92.538c0 51.534-41.507 92.538-92.548 92.538Z"></path><ellipse cx="128" cy="114.048" fill="#00D8FF" rx="92.538" ry="92.538"></ellipse><path fill="#000" d="M128.003 48.672c-36.12 0-65.376 29.268-65.376 65.376c0 36.12 29.256 65.388 65.376 65.388c36.131 0 65.387-29.268 65.387-65.388c0-36.108-29.256-65.376-65.387-65.376Zm0 110.592c-24.948 0-45.216-20.268-45.216-45.216c0-24.948 20.268-45.216 45.216-45.216c24.959 0 45.227 20.268 45.227 45.216c0 24.948-20.268 45.216-45.227 45.216Z"></path><path fill="#00D8FF" d="M128.003 68.544c-25.047 0-45.324 20.277-45.324 45.324s20.277 45.324 45.324 45.324s45.324-20.277 45.324-45.324s-20.277-45.324-45.324-45.324Z"></path></svg>
